HIERARCHY
ROOT root
{
	OFFSET 0.000000 0.000000 0.000000
	CHANNELS 6 Xposition Yposition Zposition Zrotation Yrotation Xrotation
	JOINT lhip
	{
		OFFSET 0.058581 -0.082280 -0.017664
		CHANNELS 3 Zrotation Yrotation Xrotation
		JOINT lknee
		{
			OFFSET 0.043451 -0.386469 0.008037
			CHANNELS 3 Zrotation Yrotation Xrotation
			JOINT lankle
			{
				OFFSET -0.014790 -0.426874 -0.037428
				CHANNELS 3 Zrotation Yrotation Xrotation
				JOINT ltoe
				{
					OFFSET 0.041054 -0.060286 0.122042
					CHANNELS 3 Zrotation Yrotation Xrotation
					End Site
					{
						OFFSET 0.000000 0.000000 0.000000
					}
				}
			}
		}
	}
	JOINT rhip
	{
		OFFSET -0.060310 -0.090513 -0.013543
		CHANNELS 3 Zrotation Yrotation Xrotation
		JOINT rknee
		{
			OFFSET -0.043257 -0.383688 -0.004843
			CHANNELS 3 Zrotation Yrotation Xrotation
			JOINT rankle
			{
				OFFSET 0.019056 -0.420046 -0.034562
				CHANNELS 3 Zrotation Yrotation Xrotation
				JOINT rtoe
				{
					OFFSET -0.034840 -0.062106 0.130323
					CHANNELS 3 Zrotation Yrotation Xrotation
					End Site
					{
						OFFSET 0.000000 0.000000 0.000000
					}
				}
			}
		}
	}
	JOINT lowerback
	{
		OFFSET 0.004439 0.124404 -0.038385
		CHANNELS 3 Zrotation Yrotation Xrotation
		JOINT upperback
		{
			OFFSET 0.004488 0.137956 0.026820
			CHANNELS 3 Zrotation Yrotation Xrotation
			JOINT chest
			{
				OFFSET -0.002265 0.056032 0.002855
				CHANNELS 3 Zrotation Yrotation Xrotation
				JOINT lowerneck
				{
					OFFSET -0.013390 0.211636 -0.033468
					CHANNELS 3 Zrotation Yrotation Xrotation
					JOINT upperneck
					{
						OFFSET 0.010113 0.088937 0.050410
						CHANNELS 3 Zrotation Yrotation Xrotation
						End Site
						{
							OFFSET 0.000000 0.000000 0.000000
						}
					}
				}
				JOINT lclavicle
				{
					OFFSET 0.071702 0.114000 -0.018898
					CHANNELS 3 Zrotation Yrotation Xrotation
					JOINT lshoulder
					{
						OFFSET 0.122921 0.045205 -0.019046
						CHANNELS 3 Zrotation Yrotation Xrotation
						JOINT lelbow
						{
							OFFSET 0.255332 -0.015649 -0.022946
							CHANNELS 3 Zrotation Yrotation Xrotation
							JOINT lwrist
							{
								OFFSET 0.265709 0.012698 -0.007375
								CHANNELS 3 Zrotation Yrotation Xrotation
								End Site
								{
									OFFSET 0.000000 0.000000 0.000000
								}
							}
						}
					}
				}
				JOINT rclavicle
				{
					OFFSET -0.082954 0.112472 -0.023707
					CHANNELS 3 Zrotation Yrotation Xrotation
					JOINT rshoulder
					{
						OFFSET -0.113228 0.046853 -0.008472
						CHANNELS 3 Zrotation Yrotation Xrotation
						JOINT relbow
						{
							OFFSET -0.260127 -0.014369 -0.031269
							CHANNELS 3 Zrotation Yrotation Xrotation
							JOINT rwrist
							{
								OFFSET -0.269108 0.006794 -0.006027
								CHANNELS 3 Zrotation Yrotation Xrotation
								End Site
								{
									OFFSET 0.000000 0.000000 0.000000
								}
							}
						}
					}
				}
			}
		}
	}
}
MOTION
Frames: 9
Frame Time: 0.033333
0.049402 0.218515 1.005813 88.467409 0.256094 93.335661 6.825242 2.845101 -3.359755 -3.360377 -7.212335 5.991222 -0.523031 9.156212 -7.659463 0.000000 -0.000000 0.000000 -4.707095 -2.507950 -4.654056 1.226491 2.104534 6.623696 2.311019 -5.212452 -6.476855 0.000000 -0.000000 0.000000 0.293139 1.029593 5.787558 -0.115056 -3.881459 5.441812 -1.608307 -0.519264 -9.476473 -0.328352 -4.405778 0.154501 3.396006 -0.337193 5.085180 -29.240588 3.010339 1.110492 -45.613927 0.486552 12.690794 14.951789 -27.744140 -2.170699 -3.026427 -11.153922 2.542522 26.260509 3.312461 2.892638 47.431908 1.880789 14.487694 -4.741397 27.052830 4.407654 5.476335 8.362166 5.246809 
0.050107 0.218942 1.005672 89.144684 0.295698 93.220150 6.850858 3.263973 -3.681826 -3.460627 -8.139751 6.677312 -0.829137 9.048155 -7.840967 0.000000 -0.000000 0.000000 -4.634673 -2.497153 -4.351199 1.149994 1.847461 6.653503 2.420082 -5.681039 -6.558768 0.000000 -0.000000 0.000000 0.355259 0.742482 5.934321 -0.344124 -3.711386 4.660160 -1.533574 -0.365492 -8.813692 -0.390562 -4.998155 0.045263 3.538461 -0.172144 4.836097 -29.396466 3.570260 1.507367 -46.305213 0.814100 12.130948 15.181946 -27.765363 -2.561255 -2.768517 -10.807499 1.228845 26.085079 3.363590 2.957460 48.443562 1.850953 14.740985 -4.167518 27.156983 5.295793 5.498492 8.288536 4.893056 
0.050978 0.219453 1.005582 89.521338 0.317414 92.833163 6.859465 2.831873 -3.476814 -3.530016 -8.256251 7.104012 -0.810006 9.049567 -7.980936 0.000000 -0.000000 0.000000 -4.570272 -2.221587 -3.850561 1.003802 1.471840 6.772199 2.288535 -5.926142 -6.847384 0.000000 -0.000000 0.000000 0.380387 0.732889 6.373099 -0.463143 -3.482057 4.256969 -1.489543 -0.340568 -8.512755 -0.275187 -5.072319 -0.245091 3.487406 -0.268649 4.756348 -29.582273 4.179952 1.440338 -47.481656 1.175325 11.474229 15.771418 -27.885998 -3.315978 -2.880493 -10.639914 0.544507 26.132454 3.308686 3.018599 49.082539 1.943158 15.060448 -3.912535 27.493941 6.474725 6.139267 8.098081 5.609890 
0.051320 0.220067 1.005600 89.503153 0.401220 92.682749 6.882449 2.426648 -3.562097 -3.576395 -8.067582 7.626212 -0.734448 9.237236 -8.221397 0.000000 -0.000000 0.000000 -4.473680 -2.468919 -3.839826 0.893042 1.663875 7.046969 2.220030 -5.843151 -7.029382 0.000000 -0.000000 0.000000 0.607704 1.033505 6.565788 -0.699462 -3.297986 3.979092 -1.555441 -0.223647 -8.279004 -0.156030 -5.351656 -0.708948 3.505063 -0.281445 4.857841 -29.967748 4.898905 1.444218 -48.755644 1.403512 11.028999 16.596453 -28.491579 -4.117177 -2.794162 -10.635562 -0.643267 26.012599 3.321405 3.188522 49.870552 2.238201 15.442610 -3.387297 27.834819 7.134593 6.169281 7.891273 5.051512 
0.051246 0.220715 1.005702 89.706621 0.359582 92.567157 6.768289 2.231998 -3.660067 -3.568691 -8.079750 7.984555 -0.668799 9.187878 -8.374092 0.000000 -0.000000 0.000000 -4.598461 -2.405184 -3.733155 0.905330 1.484788 7.149081 2.186428 -5.918728 -7.092920 0.000000 -0.000000 0.000000 0.676567 1.027607 6.807341 -0.807579 -3.172436 3.721135 -1.611172 -0.199891 -8.179996 -0.067615 -5.448759 -0.965825 3.473218 -0.359947 5.053264 -30.261954 5.121393 1.515452 -49.342459 1.513133 10.792594 17.027117 -29.022817 -4.420804 -2.721554 -10.756280 -1.181038 26.092902 3.304261 3.293504 50.105026 2.325287 15.563821 -3.412071 28.182986 7.559991 5.968408 7.943329 5.185849 
0.050912 0.221089 1.005735 89.828690 0.387048 92.579890 6.765438 2.196363 -3.928853 -3.624648 -8.124749 8.364433 -0.606812 9.139129 -8.496765 0.000000 -0.000000 0.000000 -4.560381 -2.525273 -3.855173 0.848519 1.466227 7.329854 2.137884 -5.878593 -7.241292 0.000000 -0.000000 0.000000 0.734398 1.132644 6.884792 -0.909761 -2.970018 3.551784 -1.639930 -0.161471 -8.108201 0.025324 -5.677236 -1.179391 3.515835 -0.522224 5.249846 -30.497085 5.206043 1.617326 -49.997542 1.537707 10.806274 17.198627 -29.717775 -4.574275 -2.487366 -10.965252 -1.810671 26.098605 3.419606 3.489571 50.361884 2.336316 15.707739 -3.318987 28.564914 7.706008 5.648702 8.143894 4.709358 
0.050459 0.221501 1.005921 90.077143 0.421684 92.541632 6.756568 2.079349 -4.147468 -3.645837 -8.205199 8.695715 -0.594764 9.057577 -8.633297 0.000000 -0.000000 0.000000 -4.516143 -2.631903 -3.847569 0.801961 1.441475 7.418925 2.092218 -5.949877 -7.311179 0.000000 -0.000000 0.000000 0.822905 1.190892 7.012846 -0.940515 -2.944534 3.427753 -1.697748 -0.154325 -8.054765 0.115481 -5.772695 -1.445611 3.528405 -0.630654 5.468068 -30.710588 5.173785 1.644249 -50.307349 1.497371 11.035782 16.982356 -30.657279 -4.039388 -2.449346 -10.793216 -1.892358 26.128522 3.434726 3.492387 50.326267 2.443477 15.808466 -3.197137 28.819079 7.995791 5.684767 8.008271 4.642271 
0.049848 0.222034 1.006063 90.179097 0.403047 92.526054 6.672026 1.993282 -4.285038 -3.638461 -8.221640 8.849964 -0.551134 9.033931 -8.649170 0.000000 -0.000000 0.000000 -4.573996 -2.662315 -3.904925 0.779614 1.355922 7.485740 2.120558 -5.942540 -7.238409 0.000000 -0.000000 0.000000 0.910407 1.241145 7.052393 -1.023221 -2.927547 3.464394 -1.802453 -0.092698 -8.146757 0.105806 -5.815546 -1.426565 3.596160 -0.676681 5.620904 -30.671794 4.993839 1.744753 -50.528109 1.267707 11.343090 16.735510 -31.450629 -3.369793 -2.743378 -11.042250 -1.742064 26.072435 3.619444 3.609565 50.318945 2.618228 15.788718 -3.278017 28.748768 7.935937 5.729349 8.086669 4.442995 
0.049084 0.222468 1.006243 90.306015 0.395098 92.495195 6.618149 1.855388 -4.406698 -3.627407 -8.203435 8.979055 -0.508426 9.007700 -8.635063 0.000000 -0.000000 0.000000 -4.607432 -2.722713 -3.920097 0.753763 1.333985 7.517883 2.131419 -5.971834 -7.191492 0.000000 -0.000000 0.000000 0.905348 1.341191 7.076999 -1.025892 -2.967436 3.516789 -1.816066 -0.058575 -8.168945 0.129813 -5.867444 -1.462039 3.626250 -0.737960 5.706160 -30.721506 4.676093 1.793430 -50.424843 0.955137 11.692390 16.420427 -32.437899 -2.534719 -3.137524 -11.155762 -1.417354 26.038337 3.796126 3.685648 50.072379 2.747740 15.679432 -3.420988 28.701645 7.732531 5.917722 8.038257 4.343110 
